<svg xmlns="http://www.w3.org/2000/svg" viewBox="0 0 300 300"><defs><style>.cls-1{fill:#030303;}.cls-2{fill:#050505;}.cls-3{fill:#070707;}</style></defs><g id="Layer_2" data-name="Layer 2"><g id="Layer_1-2" data-name="Layer 1"><path class="cls-1" d="M299.13,130.75a232.64,232.64,0,0,1,.07,39.32,129.54,129.54,0,0,1-15.67,49.87c-3.34,6.06-5.17,18.54-15.59,12.93-8.87-4.77-.64-12.81,2.31-18.59,16.76-32.82,20.39-67,10.09-102.24C257.86,35.16,175.67-5.79,101.7,22.58,27.92,50.88-6.52,136.75,27.06,208.81c1.68,3.61,3.76,7,5.68,10.52,2.35,4.26,5.1,9.16.1,12.7-6.54,4.62-9.84-.69-12.79-5.76-10.13-17.45-17.23-36-19-56.19-1.31-14.66-1.46-24.28.06-39.35C8.23,59.89,59.62,5.13,130.54.77c16.7-1,24.56-1,39.16,0C240.49,5.8,288.12,60.34,299.13,130.75Z"/><path class="cls-2" d="M169.7,300H130.54c-27.62-3.13-51.8-14.39-73.87-31-9.21-6.92-12.19-12.58-2.41-22.65,46.95-48.28,144.55-48.3,191.66,0,9.78,10,6.91,15.7-2.35,22.65C221.5,285.58,197.31,296.84,169.7,300Z"/><path class="cls-3" d="M149.92,181.14c-30.37-.09-54.15-23.86-54.39-54.35-.24-31.41,24.56-55.86,55.94-55.14,30.3.69,53.62,25,53.21,55.51S180.31,181.23,149.92,181.14Z"/></g></g></svg>