<svg width="408" height="426" viewBox="0 0 408 426" fill="none" xmlns="http://www.w3.org/2000/svg">
<mask id="mask0_150_32" style="mask-type:alpha" maskUnits="userSpaceOnUse" x="0" y="0" width="408" height="426">
<rect width="408" height="426" fill="#D9D9D9"/>
</mask>
<g mask="url(#mask0_150_32)">
<path d="M146.679 425.863C93.9498 425.843 43.2765 405.778 5.28758 369.878C-32.7013 333.977 -55.0542 285.029 -57.0828 233.3C-57.3692 221.996 -59.6606 213.561 -68.8262 205.8C-75.8129 199.796 -80.9684 192.01 -83.7203 183.304C-91.0527 161.596 -80.2832 144.049 -57.3692 142.981C-51.8148 143.181 -46.3317 141.702 -41.6603 138.746C-36.9889 135.789 -33.3543 131.496 -31.2474 126.446C-19.5917 104.666 -3.4371 85.5122 16.1845 70.2074C22.314 65.4271 26.7249 61.6591 24.0325 51.3673C16.8146 23.8103 31.0785 4.85772 59.8928 0.752277C70.5023 -1.0789 81.3761 -0.828963 91.8867 1.48767C102.397 3.8043 112.336 8.14174 121.13 14.2496C130.357 20.7615 141.507 24.1203 152.866 23.8103C201.327 23.7752 248.022 41.6665 283.647 73.9192C287.641 78.1409 292.84 81.0811 298.563 82.3554C304.287 83.6297 310.269 83.1788 315.727 81.0615C343.224 73.1881 371.35 69.8137 393.176 94.1652C404.232 106.706 412.366 120.935 405.435 138.369C398.503 155.803 382.521 160.527 366.94 160.021C344.713 159.29 344.484 167.388 348.322 185.441C354.509 214.699 353.933 244.947 346.637 273.958C339.341 302.968 325.51 330.003 306.162 353.072C286.815 376.14 262.444 394.654 234.843 407.252C207.242 419.849 177.115 426.209 146.679 425.863ZM319.45 224.808C319.107 220.197 318.591 212.548 318.133 204.843C317.732 198.376 314.295 195.452 308.452 199.22C292.807 207.678 275.503 212.759 257.697 214.123C251.511 214.91 249.849 218.228 248.704 223.74C242.46 254.165 223.384 271.262 191.877 274.917C188.268 275.311 184.659 275.648 183.284 279.641C176.639 299.494 156.819 317.265 175.837 341.054C181.566 348.14 183.17 359.444 183.857 369.174C185.347 388.407 194.283 387.62 209.12 381.94C241.455 369.653 269.272 348.093 288.951 320.067C308.63 292.041 319.257 258.847 319.45 224.808ZM144.216 191.065C144.661 189.286 144.548 187.417 143.894 185.701C143.24 183.986 142.075 182.503 140.55 181.448C119.24 158.39 114.485 123.072 82.9213 107.438C79.9425 105.919 78.5677 100.351 77.1928 96.1898C71.4643 78.3058 60.0074 79.768 47.5766 88.2039C28.4129 101.876 12.1302 119.064 -0.370834 138.819C-7.07316 148.661 -6.09932 154.06 5.35765 159.515C38.2223 175.038 68.2593 195.768 94.2637 220.872C97.2425 223.684 103.372 228.295 104.059 227.676C118.381 215.248 132.129 202.313 144.216 191.065ZM371.637 124.928C368.715 111.487 358.519 109.35 347.291 109.237C330.825 109.866 314.698 114.012 300.031 121.385C238.392 148.548 187.523 189.828 142.44 238.418C125.255 257.033 125.77 259.452 147.367 275.986C144.445 241.399 144.445 241.455 179.847 243.142C197.663 243.93 210.38 237.518 215.077 219.353C223.957 185.61 223.957 185.61 258.671 180.829C264.329 180.031 269.919 178.828 275.398 177.23C290.292 173.068 301.692 165.701 300.432 148.155C298.942 128.19 310.056 124.422 327.413 126.84C342.021 128.865 357.029 132.126 371.637 124.815V124.928ZM123.536 388.183C106.351 366.306 90.6548 346.903 89.1654 321.089C88.8789 315.016 84.468 313.722 79.3124 312.091C54.3935 304.218 30.5057 295.219 24.1471 265.75C23.4024 262.376 -13.5463 251.859 -17.098 253.321C-21.6235 255.121 -20.4205 258.945 -20.1914 262.151C-16.1814 318.671 59.4345 386.889 123.536 388.183ZM70.8342 32.5835C67.2825 32.9772 58.8617 31.7962 57.2004 39.2197C55.5392 46.6433 64.1319 49.1178 69.9749 50.4675C77.656 51.9286 85.4244 52.9054 93.2326 53.392C101.94 54.5167 110.418 59.0158 108.757 67.6204C103.487 96.5272 124.567 101.364 144.388 107.381C157.105 111.262 161.573 118.629 157.449 131.227C156.01 135.17 155.048 139.266 154.585 143.431C153.955 151.023 159.511 154.678 165.698 157.04C171.885 159.402 177.155 160.64 181.337 155.466C185.518 150.292 181.337 144.612 178.816 139.944C161.631 107.719 143.586 75.8875 115.516 50.9737C109.673 45.1656 102.716 40.5504 95.0476 37.3941C87.3788 34.2378 79.1496 32.6029 70.8342 32.5835ZM169.421 58.7347C178.53 73.4693 185.518 84.6608 192.335 95.9649C215.879 134.995 217.655 135.332 255.349 106.706C261.593 101.982 262.796 99.1705 256.437 94.2777C231.77 74.0487 201.425 61.6538 169.421 58.7347ZM-45.3967 179.311C-31.3046 191.29 -11.0258 196.633 -9.1927 218.678C-9.1927 220.197 -4.6672 221.715 -1.97481 222.559C15.0133 228.063 33.047 229.735 50.7845 227.452C19.1633 203.1 -9.36455 184.541 -45.3967 179.311ZM62.9289 238.474C54.909 269.293 62.9289 277.504 104.575 281.835C92.6776 265.661 78.6768 251.084 62.9289 238.474ZM124.682 314.791C124.682 328.457 126.229 341.617 140.894 351.346C141.696 335.43 132.244 325.589 124.682 314.791Z" fill="#4FAD4B" fill-opacity="0.4"/>
</g>
</svg>
