<svg width="131" height="149" viewBox="0 0 131 149" fill="none" xmlns="http://www.w3.org/2000/svg">
<mask id="mask0_188_2598" style="mask-type:alpha" maskUnits="userSpaceOnUse" x="0" y="0" width="131" height="149">
<rect width="131" height="149" fill="#D9D9D9"/>
</mask>
<g mask="url(#mask0_188_2598)">
<path d="M39.9403 149.318C22.3733 149.311 5.49139 142.627 -7.1647 130.666C-19.8208 118.706 -27.2677 102.399 -27.9436 85.1655C-28.039 81.3995 -28.8024 78.5891 -31.8559 76.0035C-34.1835 74.0035 -35.9011 71.4093 -36.8179 68.509C-39.2607 61.2769 -35.6728 55.4312 -28.039 55.0752C-26.1885 55.1418 -24.3618 54.6494 -22.8055 53.6643C-21.2492 52.6792 -20.0383 51.249 -19.3364 49.5668C-15.4533 42.3107 -10.0714 35.9294 -3.53437 30.8306C-1.49232 29.238 -0.0228081 27.9827 -0.919785 24.554C-3.32444 15.3733 1.42762 9.0592 11.0272 7.69146C14.5617 7.0814 18.1844 7.16466 21.686 7.93646C25.1876 8.70825 28.4989 10.1533 31.4286 12.1881C34.5027 14.3576 38.217 15.4766 42.0015 15.3733C58.1463 15.3616 73.7029 21.3221 85.5716 32.0672C86.9021 33.4737 88.6341 34.4532 90.5408 34.8778C92.4476 35.3023 94.4405 35.1521 96.2589 34.4467C105.42 31.8236 114.79 30.6995 122.061 38.8122C125.745 42.9904 128.455 47.7306 126.145 53.5388C123.836 59.347 118.512 60.9209 113.321 60.7523C105.916 60.5087 105.839 63.2067 107.118 69.221C109.179 78.9684 108.988 89.0456 106.557 98.7106C104.126 108.376 99.5182 117.382 93.0725 125.068C86.6268 132.753 78.5075 138.921 69.3122 143.118C60.117 147.315 50.08 149.433 39.9403 149.318ZM97.4995 82.3363C97.3849 80.7999 97.2132 78.2518 97.0605 75.685C96.9269 73.5303 95.7818 72.556 93.8352 73.8114C88.6231 76.6291 82.8583 78.3219 76.9263 78.7764C74.8651 79.0387 74.3117 80.1442 73.93 81.9803C71.8498 92.1166 65.4946 97.8124 54.9981 99.0302C53.7957 99.1614 52.5934 99.2738 52.1354 100.604C49.9216 107.218 43.3183 113.139 49.6544 121.064C51.5628 123.425 52.0972 127.191 52.3262 130.432C52.8224 136.84 55.7996 136.577 60.7425 134.685C71.515 130.592 80.7825 123.409 87.3385 114.072C93.8944 104.735 97.4351 93.6765 97.4995 82.3363ZM39.1197 71.0946C39.2678 70.5019 39.2304 69.8792 39.0125 69.3077C38.7946 68.7361 38.4063 68.2423 37.8983 67.8907C30.7988 60.2089 29.2148 48.4426 18.6992 43.2339C17.7068 42.7281 17.2487 40.8732 16.7907 39.4867C14.8823 33.5286 11.0653 34.0158 6.92398 36.8262C0.539574 41.3809 -4.88506 47.1074 -9.04982 53.6887C-11.2827 56.9676 -10.9583 58.7662 -7.14136 60.5836C3.80758 65.7552 13.8145 72.6613 22.4779 81.0248C23.4703 81.9616 25.5124 83.4979 25.7414 83.2918C30.5125 79.1512 35.0928 74.8419 39.1197 71.0946ZM114.886 49.0609C113.912 44.583 110.515 43.871 106.775 43.8335C101.289 44.0431 95.9161 45.4242 91.0298 47.8805C70.4948 56.9301 53.5476 70.6824 38.5281 86.8705C32.8027 93.0721 32.9744 93.8778 40.1693 99.3862C39.196 87.8635 39.196 87.8822 50.9903 88.4443C56.9256 88.7066 61.1624 86.5707 62.7273 80.5189C65.6854 69.2772 65.6854 69.2772 77.2507 67.6846C79.1355 67.4185 80.998 67.0177 82.8234 66.4855C87.7854 65.099 91.5832 62.6446 91.1634 56.7989C90.6672 50.1476 94.3696 48.8923 100.152 49.6979C105.019 50.3724 110.019 51.4591 114.886 49.0234V49.0609ZM32.2302 136.765C26.5048 129.476 21.2756 123.013 20.7794 114.413C20.684 112.389 19.2145 111.958 17.4968 111.415C9.19505 108.792 1.23677 105.794 -0.881615 95.9762C-1.12971 94.8521 -13.4393 91.3484 -14.6225 91.8355C-16.1302 92.4351 -15.7294 93.7092 -15.6531 94.7771C-14.3172 113.607 10.8745 136.334 32.2302 136.765ZM14.6723 18.2961C13.4891 18.4273 10.6836 18.0338 10.1302 20.507C9.57674 22.9802 12.4394 23.8046 14.3861 24.2542C16.945 24.741 19.5331 25.0664 22.1344 25.2285C25.0353 25.6032 27.8598 27.1021 27.3063 29.9688C25.5505 39.5991 32.5737 41.2104 39.1769 43.2152C43.4137 44.508 44.9023 46.9624 43.5282 51.1593C43.0487 52.4731 42.7284 53.8378 42.574 55.2251C42.3641 57.7545 44.2153 58.9723 46.2764 59.7592C48.3375 60.5462 50.0933 60.9584 51.4865 59.2346C52.8797 57.5109 51.4865 55.6186 50.6468 54.0634C44.9214 43.3276 38.9098 32.723 29.5583 24.4228C27.6115 22.4879 25.2939 20.9503 22.7391 19.8988C20.1842 18.8473 17.4426 18.3026 14.6723 18.2961ZM47.5169 27.0084C50.5514 31.9173 52.8797 35.6458 55.1507 39.4118C62.9945 52.4147 63.5861 52.5271 76.1438 42.9904C78.224 41.4165 78.6248 40.4797 76.5064 38.8497C68.2884 32.1104 58.1789 27.9809 47.5169 27.0084ZM-24.0503 67.1788C-19.3555 71.1696 -12.5995 72.9495 -11.9888 80.2941C-11.9888 80.7999 -10.4812 81.3058 -9.58418 81.5869C-3.92454 83.4206 2.08343 83.9777 7.99272 83.2169C-2.54197 75.1042 -12.0461 68.9212 -24.0503 67.1788ZM12.0387 86.8892C9.36681 97.1566 12.0387 99.8921 25.9132 101.335C21.9495 95.9464 17.2851 91.09 12.0387 86.8892ZM32.6118 112.314C32.6118 116.867 33.1271 121.251 38.0128 124.493C38.28 119.19 35.131 115.911 32.6118 112.314Z" fill="#4FAD4B" fill-opacity="0.4"/>
</g>
</svg>
