<svg width="160" height="203" viewBox="0 0 160 203" fill="none" xmlns="http://www.w3.org/2000/svg">
<mask id="mask0_188_2584" style="mask-type:alpha" maskUnits="userSpaceOnUse" x="0" y="0" width="160" height="203">
<rect y="0.918091" width="160" height="202" fill="#D9D9D9"/>
</mask>
<g mask="url(#mask0_188_2584)">
<path d="M112.955 32.0103C103.311 22.1029 102.318 13.329 109.093 5.8248C115.404 -1.20333 125.953 -0.772575 133.986 7.70652C143.961 18.1127 151.001 30.1059 148.375 45.6358C147.603 50.17 149.148 51.1676 153.076 50.4874C168.215 47.8576 179.867 55.0217 190.019 65.2238C197.5 72.7734 198.493 82.1594 193.44 88.9834C188.121 96.1929 180.529 97.1451 170.797 91.2506C167.354 89.1875 166.383 89.6636 165.368 93.6538C163.536 100.569 158.284 103.448 151.553 103.402C148.469 103.57 145.427 102.61 142.967 100.692C140.507 98.7751 138.787 96.0243 138.113 92.9283C136.458 86.603 134.03 85.6054 129.286 89.7543C128.628 90.2672 127.935 90.7295 127.211 91.1372C123.57 93.6538 118.604 95.3995 116.618 98.8908C114.632 102.382 119.73 105.987 121.032 109.954C122.742 114.668 122.957 119.816 121.645 124.663C120.332 129.509 117.561 133.804 113.727 136.933C86.9356 160.557 58.9524 182.548 27.085 198.736C22.4532 201.298 17.2937 202.689 12.0341 202.794C4.08934 202.794 -0.192006 198.26 0.00661326 190.098C0.242855 184.993 1.56087 180.002 3.86865 175.475C19.692 142.397 41.1649 113.355 64.4916 85.7188C73.0764 75.562 84.3536 74.6551 95.8955 81.9326C99.9341 84.4718 101.987 84.3812 103.973 80.0283C105 77.6714 106.32 75.4614 107.901 73.4536C112.999 67.1509 114.853 62.6393 104.524 59.556C98.1907 57.6743 95.6969 51.1449 96.9107 44.2528C98.3231 35.7737 103.73 31.8969 112.955 32.0103ZM170.797 67.7177L171.216 69.01L172.055 68.3525L170.643 67.8764C161.109 60.1681 147.007 62.1179 137.363 73.0228C145.55 75.2899 148.706 82.2727 151.575 89.5729C153.12 71.4811 155.393 68.9193 170.797 67.7177ZM82.2129 91.0465C80.3983 90.912 78.5846 91.3199 76.9908 92.2211C75.3969 93.1222 74.0911 94.4781 73.2309 96.1249C71.024 100.296 75.6805 100.999 77.4902 102.926C84.1108 109.728 90.9521 116.212 97.3521 123.127C99.2721 125.167 99.7797 129.679 103.531 127.888C105.278 126.989 106.738 125.596 107.739 123.872C108.74 122.149 109.24 120.167 109.181 118.162C109.291 109.297 90.9521 91.1372 82.2129 91.0465ZM68.4199 101.407C66.3896 103.924 64.293 106.35 62.3951 108.934C60.4972 111.519 62.8806 112.924 64.4475 114.285C72.3163 120.871 79.4379 128.347 85.6777 136.571C89.0322 141.105 91.217 139.065 94.2625 136.571C97.3079 134.077 98.6762 132.331 95.6087 128.568C88.7014 119.826 80.9853 111.793 72.5688 104.581C71.5095 103.697 70.384 102.926 68.4199 101.407ZM58.5993 115.532C55.4214 116.529 54.4283 119.726 52.4862 121.902C50.5442 124.079 51.5593 125.824 53.4352 127.479C60.5483 133.658 67.1002 140.487 73.0102 147.884C76.8502 152.781 79.0791 148.065 81.8377 146.546C85.5453 144.438 84.7508 142.012 82.3674 139.155C76.4632 131.753 69.9107 124.923 62.7923 118.751C61.5344 117.685 60.2103 116.711 58.6655 115.532H58.5993ZM48.6683 129.384C45.2697 130.336 44.4973 133.691 42.6435 135.936C40.7898 138.18 41.496 139.745 43.4159 141.649C48.9111 147.09 54.2738 152.69 59.5924 158.313C64.0061 163.096 66.213 157.406 69.0819 156.045C72.5688 154.322 70.7592 152.101 69.0819 150.037C63.6413 143.38 57.6774 137.192 51.2504 131.538C50.5221 130.744 49.6393 130.132 48.7345 129.384H48.6683ZM130.213 25.4809C132.552 40.7841 130.499 43.0512 109.424 47.2228C117.501 50.3514 124.475 53.5027 126.637 62.2085C137.65 49.1272 138.863 35.3883 130.213 25.4809ZM57.3855 163.21C56.7143 162.171 55.9771 161.179 55.1786 160.24C50.7649 155.705 46.3511 150.944 41.9373 146.365C40.1939 144.596 38.0312 142.216 36.045 145.798C34.5001 148.655 29.6671 151.012 33.0657 155.116C37.1484 160.036 41.8932 164.434 46.3069 168.968C48.5138 171.099 50.3235 169.603 52.1331 168.22C53.9428 166.837 56.4807 165.703 57.3855 163.21ZM43.107 173.593C43.3718 171.031 30.594 157.859 28.674 158.313C28.4006 158.363 28.1519 158.507 27.9678 158.721C26.0037 161.917 21.3471 165.318 23.2671 168.56C25.805 173.094 29.1816 178.558 34.787 179.012C37.5236 179.238 41.2532 176.472 43.1732 173.593H43.107ZM19.4934 173.208C16.962 177.347 15.0571 181.857 13.8437 186.584C13.4686 188.443 14.7927 189.214 16.3155 188.602C20.7292 186.856 26.9747 186.947 27.8574 181.573C28.2988 178.739 23.7085 175.475 19.4934 173.208ZM172.563 70.0982C176.403 74.8138 176.182 79.7108 180.838 81.0485C181.113 81.1035 181.397 81.0939 181.668 81.0202C181.938 80.9465 182.189 80.8108 182.402 80.6231C182.614 80.4355 182.782 80.2009 182.894 79.9368C183.005 79.6728 183.057 79.3863 183.045 79.0987C182.295 74.4058 179.139 71.9572 172.563 70.0982ZM130.389 23.5765C125.975 20.0398 124.519 15.0294 119.355 15.0974C119.076 15.0931 118.802 15.1687 118.562 15.3156C118.323 15.4625 118.128 15.675 118 15.9292C117.872 16.1834 117.815 16.4694 117.836 16.7549C117.857 17.0404 117.955 17.3144 118.119 17.5459C120.524 21.5587 124.077 23.6899 130.389 23.5765Z" fill="#F99D1C" fill-opacity="0.4"/>
</g>
</svg>
