<svg width="389" height="471" viewBox="0 0 389 471" fill="none" xmlns="http://www.w3.org/2000/svg">
<mask id="mask0_150_30" style="mask-type:alpha" maskUnits="userSpaceOnUse" x="0" y="0" width="389" height="471">
<rect width="389" height="471" fill="#D9D9D9"/>
</mask>
<g mask="url(#mask0_150_30)">
<path d="M261.714 77.8433C239.54 55.0635 237.256 34.89 252.834 17.6358C267.347 1.47615 291.601 2.46657 310.072 21.9624C333.007 45.889 349.194 73.4646 343.155 109.172C341.379 119.598 344.931 121.891 353.964 120.327C388.773 114.281 415.565 130.753 438.906 154.211C456.108 171.569 458.391 193.15 446.771 208.84C434.542 225.417 417.087 227.606 394.71 214.053C386.794 209.31 384.561 210.404 382.227 219.579C378.015 235.478 365.939 242.098 350.462 241.994C343.372 242.379 336.377 240.171 330.72 235.763C325.064 231.354 321.11 225.029 319.56 217.911C315.755 203.367 310.173 201.073 299.263 210.613C297.752 211.792 296.158 212.855 294.494 213.793C286.121 219.579 274.704 223.593 270.137 231.62C265.571 239.648 277.292 247.936 280.286 257.059C284.218 267.896 284.711 279.734 281.694 290.877C278.677 302.02 272.305 311.896 263.49 319.091C201.889 373.408 137.548 423.972 64.276 461.191C53.6261 467.082 41.763 470.281 29.6697 470.522C11.4025 470.522 1.55853 460.096 2.01521 441.33C2.55839 429.592 5.58888 418.118 10.8951 407.708C47.2773 331.653 96.6495 264.878 150.284 201.334C170.023 177.981 195.952 175.896 222.49 192.629C231.776 198.467 236.495 198.258 241.062 188.25C243.424 182.831 246.46 177.749 250.094 173.133C261.816 158.641 266.078 148.268 242.331 141.179C227.768 136.852 222.034 121.839 224.824 105.992C228.072 86.4966 240.504 77.5827 261.714 77.8433ZM394.71 159.945L395.674 162.916L397.602 161.404L394.354 160.309C372.434 142.586 340.009 147.069 317.835 172.142C336.66 177.355 343.917 193.411 350.513 210.196C354.065 168.598 359.292 162.707 394.71 159.945ZM191.03 213.584C186.858 213.275 182.688 214.213 179.023 216.285C175.358 218.357 172.356 221.474 170.378 225.261C165.304 234.852 176.01 236.468 180.171 240.899C195.394 256.537 211.124 271.446 225.839 287.345C230.254 292.036 231.421 302.41 240.047 298.292C244.063 296.225 247.42 293.022 249.722 289.06C252.024 285.097 253.174 280.541 253.037 275.929C253.291 255.547 211.124 213.793 191.03 213.584ZM159.316 237.406C154.648 243.193 149.827 248.77 145.464 254.713C141.1 260.655 146.58 263.887 150.183 267.015C168.275 282.159 184.65 299.348 198.997 318.257C206.71 328.682 211.733 323.991 218.735 318.257C225.738 312.523 228.884 308.509 221.831 299.856C205.949 279.756 188.208 261.286 168.856 244.704C166.42 242.671 163.832 240.899 159.316 237.406ZM136.736 269.882C129.429 272.176 127.146 279.526 122.68 284.53C118.215 289.534 120.549 293.548 124.862 297.353C141.217 311.559 156.282 327.262 169.871 344.268C178.7 355.528 183.825 344.685 190.168 341.193C198.692 336.345 196.866 330.767 191.385 324.199C177.81 307.181 162.744 291.476 146.377 277.284C143.485 274.834 140.44 272.593 136.888 269.882H136.736ZM113.902 301.732C106.088 303.921 104.312 311.636 100.049 316.797C95.7869 321.958 97.4107 325.555 101.825 329.933C114.46 342.444 126.79 355.319 139.019 368.247C149.168 379.246 154.242 366.162 160.838 363.034C168.856 359.073 164.695 353.964 160.838 349.22C148.329 333.912 134.616 319.686 119.839 306.684C118.164 304.86 116.135 303.452 114.054 301.732H113.902ZM301.395 62.8305C306.773 98.0168 302.054 103.23 253.595 112.821C272.167 120.015 288.202 127.26 293.174 147.278C318.495 117.2 321.286 85.6104 301.395 62.8305ZM133.945 379.507C132.402 377.118 130.707 374.837 128.871 372.678C118.722 362.252 108.574 351.306 98.4255 340.776C94.4169 336.71 89.4441 331.236 84.8773 339.473C81.3254 346.041 70.2128 351.462 78.0271 360.897C87.4144 372.209 98.324 382.322 108.472 392.747C113.547 397.647 117.708 394.207 121.868 391.027C126.029 387.847 131.865 385.241 133.945 379.507ZM101.115 403.381C101.724 397.491 72.344 367.205 67.9294 368.247C67.3009 368.364 66.7289 368.694 66.3057 369.185C61.7896 376.535 51.083 384.355 55.4976 391.809C61.3329 402.234 69.0965 414.797 81.985 415.84C88.2771 416.361 96.8525 410.001 101.267 403.381H101.115ZM46.8206 402.495C41.0003 412.012 36.6204 422.382 33.8306 433.25C32.968 437.525 36.0125 439.297 39.5137 437.89C49.6622 433.876 64.0223 434.085 66.0519 421.73C67.0668 415.214 56.5124 407.708 46.8206 402.495ZM398.769 165.418C407.598 176.261 407.091 187.52 417.797 190.596C418.43 190.722 419.081 190.7 419.704 190.531C420.327 190.361 420.904 190.049 421.392 189.618C421.881 189.186 422.267 188.647 422.524 188.04C422.78 187.433 422.899 186.774 422.872 186.113C421.146 175.322 413.89 169.692 398.769 165.418ZM301.801 58.4518C291.652 50.3199 288.303 38.7996 276.429 38.956C275.789 38.9462 275.158 39.1199 274.608 39.4577C274.057 39.7956 273.61 40.2841 273.315 40.8686C273.02 41.4531 272.889 42.1105 272.937 42.7671C272.985 43.4236 273.211 44.0534 273.588 44.5858C279.119 53.8124 287.288 58.7124 301.801 58.4518Z" fill="#F99D1C" fill-opacity="0.4"/>
</g>
</svg>
