<svg width="40" height="40" viewBox="0 0 40 40" fill="none" xmlns="http://www.w3.org/2000/svg">
<path fill-rule="evenodd" clip-rule="evenodd" d="M40 39.9281H31.7113V26.9601C31.7113 23.8658 31.6594 19.8892 27.4053 19.8892C23.0933 19.8892 22.4345 23.259 22.4345 26.7365V39.9281H14.1538V13.2575H22.0991V16.9047H22.2149C23.3189 14.8086 26.0239 12.5967 30.0564 12.5967C38.4489 12.5967 39.998 18.1185 39.998 25.3012V39.9281H40ZM4.8091 9.61621C4.17742 9.61674 3.55182 9.4927 2.96812 9.25121C2.38442 9.00971 1.85406 8.6555 1.40738 8.20883C0.960713 7.76216 0.606497 7.2318 0.365003 6.64809C0.123509 6.06439 -0.000523434 5.4388 1.66028e-06 4.80711C1.98816e-06 3.85652 0.281834 2.92728 0.809869 2.13684C1.3379 1.3464 2.08844 0.730259 2.96659 0.366303C3.84474 0.00234742 4.81108 -0.0930822 5.74346 0.0920777C6.67584 0.277238 7.53239 0.734674 8.20484 1.40656C8.87728 2.07845 9.33543 2.93462 9.52136 3.86684C9.70729 4.79907 9.61267 5.76549 9.24944 6.64394C8.88621 7.5224 8.2707 8.27344 7.4807 8.80213C6.6907 9.33082 5.76169 9.61342 4.8111 9.61421L4.8091 9.61621ZM8.95543 39.9281H0.658783V13.2575H8.95543V39.9281Z" fill="white"/>
</svg>
