<svg width="40" height="54" viewBox="0 0 40 54" fill="none" xmlns="http://www.w3.org/2000/svg">
<path fill-rule="evenodd" clip-rule="evenodd" d="M20.7107 52.9728C20.5179 53.1602 20.2573 53.2654 19.9858 53.2654C19.7143 53.2654 19.4538 53.1602 19.261 52.9728C6.68897 40.755 0.401052 29.5243 0.397217 19.2807C0.397217 14.1838 2.46223 9.29563 6.13796 5.69156C9.8137 2.08749 14.7991 0.0627441 19.9973 0.0627441C25.1956 0.0627441 30.181 2.08749 33.8567 5.69156C37.5325 9.29563 39.5975 14.1838 39.5975 19.2807C39.5975 29.5243 33.3019 40.755 20.7107 52.9728ZM19.9973 26.3599C21.6313 26.361 23.2289 25.8866 24.5878 24.9969C25.9466 24.1071 27.0056 22.842 27.6306 21.3617C28.2557 19.8814 28.4186 18.2525 28.0989 16.6814C27.7791 15.1102 26.991 13.6675 25.8344 12.5358C24.6778 11.4041 23.2047 10.6344 21.6016 10.3241C19.9986 10.0139 18.3377 10.1771 16.8292 10.793C15.3208 11.409 14.0328 12.45 13.1282 13.7842C12.2236 15.1184 11.7431 16.6858 11.7477 18.288C11.7523 20.4303 12.6234 22.4834 14.1701 23.9967C15.7167 25.51 17.8124 26.3599 19.9973 26.3599" fill="#006837"/>
<path d="M19.9971 53.6548C19.6197 53.6591 19.2559 53.5172 18.9846 53.26C6.39149 41.0252 0 29.5689 0 19.2802C0.088969 14.1369 2.23523 9.23378 5.97627 5.62737C9.71732 2.02095 14.7537 0 20 0C25.2463 0 30.2827 2.02095 34.0237 5.62737C37.7648 9.23378 39.911 14.1369 40 19.2802C40 29.5971 33.6085 41.0252 21.0154 53.2487C20.8832 53.3782 20.7262 53.4808 20.5534 53.5505C20.3806 53.6202 20.1955 53.6557 20.0086 53.6548M20.0086 0.451462C14.9165 0.45594 10.0341 2.44094 6.43291 5.97088C2.83168 9.50083 0.805748 14.2874 0.799655 19.2802C0.799655 29.3771 7.12786 40.6191 19.5542 52.6959C19.6734 52.81 19.8334 52.8738 20 52.8738C20.1666 52.8738 20.3266 52.81 20.4459 52.6959V52.6959C32.8894 40.6191 39.2003 29.3771 39.2003 19.2802C39.1943 14.2884 37.1691 9.50266 33.5691 5.97287C29.9691 2.44309 25.0883 0.457433 19.9971 0.451462M19.9971 26.7542C18.2904 26.7542 16.622 26.258 15.2029 25.3282C13.7838 24.3985 12.6778 23.0771 12.0246 21.531C11.3715 19.985 11.2006 18.2837 11.5336 16.6424C11.8665 15.0011 12.6884 13.4935 13.8952 12.3102C15.1021 11.1269 16.6397 10.321 18.3136 9.99458C19.9876 9.6681 21.7226 9.83566 23.2994 10.4761C24.8763 11.1165 26.224 12.2009 27.1722 13.5924C28.1204 14.9838 28.6265 16.6196 28.6265 18.2931C28.6174 20.5344 27.7053 22.6813 26.089 24.2661C24.4726 25.851 22.283 26.7453 19.9971 26.7542M19.9971 10.5709C18.445 10.5721 16.928 11.0241 15.6378 11.8701C14.3475 12.7161 13.3419 13.918 12.7479 15.324C12.1539 16.7301 11.9982 18.2771 12.3005 19.7699C12.6028 21.2626 13.3494 22.6341 14.4461 23.711C15.5428 24.7879 16.9405 25.522 18.4624 25.8205C19.9844 26.1191 21.5625 25.9687 22.9974 25.3883C24.4322 24.808 25.6595 23.8238 26.5242 22.5599C27.3889 21.2961 27.8522 19.8093 27.8556 18.2875C27.8564 17.2748 27.6537 16.272 27.2592 15.3362C26.8647 14.4004 26.286 13.5499 25.5563 12.8334C24.8266 12.1168 23.96 11.5482 23.0062 11.16C22.0524 10.7719 21.0299 10.5717 19.9971 10.5709" fill="white"/>
<path d="M35.5992 19.7089C35.5992 22.7379 34.6831 25.6988 32.9669 28.2173C31.2506 30.7357 28.8112 32.6986 25.9572 33.8578C23.1032 35.0169 19.9627 35.3202 16.9329 34.7293C13.903 34.1383 11.12 32.6798 8.93559 30.538C6.75121 28.3962 5.26363 25.6674 4.66096 22.6966C4.0583 19.7259 4.36761 16.6466 5.54978 13.8483C6.73196 11.0499 8.73391 8.65806 11.3025 6.97527C13.871 5.29247 16.8908 4.39429 19.98 4.39429C22.0311 4.39429 24.0622 4.79041 25.9572 5.56004C27.8522 6.32967 29.5741 7.45774 31.0244 8.87984C32.4748 10.3019 33.6253 11.9902 34.4102 13.8483C35.1952 15.7063 35.5992 17.6978 35.5992 19.7089" fill="#FFC533"/>
<path d="M35.2996 18.8908C32.9777 19.8819 30.7202 21.0122 28.5399 22.2753C23.1774 25.3803 18.3117 29.2445 14.1002 33.7429C11.5289 32.6936 9.29609 30.98 7.63965 28.7847C15.8937 23.2825 25.3729 19.8008 35.2823 18.6313C35.2823 18.7272 35.2823 18.8231 35.2823 18.919" fill="#006837"/>
<path d="M14.1753 34.0814L13.9969 34.0081C11.3741 32.9325 9.09912 31.1776 7.41561 28.9314L7.24878 28.7058L7.48465 28.5478C15.7741 23.0172 25.2943 19.5143 35.2482 18.3324L35.5358 18.2986V18.5806C35.5358 18.6765 35.5358 18.778 35.5358 18.8739V19.0657L35.3632 19.1391C33.0512 20.1313 30.8033 21.2616 28.6323 22.5235C23.2888 25.6108 18.4419 29.4583 14.2501 33.9404L14.1753 34.0814ZM8.05419 28.8468C9.61947 30.8465 11.6813 32.4196 14.043 33.4158C19.7706 27.3262 26.6833 22.4221 34.3737 18.9924C24.9471 20.2594 15.9428 23.6307 8.05419 28.8468" fill="white"/>
<path d="M35.352 19.8392C35.3511 22.3144 34.7277 24.7512 33.5372 26.9338C32.3467 29.1164 30.6257 30.9775 28.5266 32.3524C26.4275 33.7273 24.0151 34.5736 21.5029 34.8162C18.9906 35.0589 16.4561 34.6905 14.1238 33.7437C18.3318 29.2438 23.1958 25.3794 28.5578 22.276C30.7394 21.0118 32.9989 19.8815 35.3232 18.8916C35.3232 19.2018 35.352 19.5234 35.352 19.8392" fill="#006837"/>
<path d="M20.0026 35.1647C17.9472 35.1679 15.9116 34.771 14.0138 33.9971L13.6456 33.8448L13.916 33.5571C19.8731 27.1835 27.1234 22.1015 35.2018 18.6374L35.5642 18.4851L35.593 18.8687C35.593 19.1902 35.593 19.5174 35.593 19.8389C35.5976 23.8981 33.9578 27.7929 31.0342 30.6669C28.1106 33.5409 24.1425 35.1588 20.0026 35.1647M14.6006 33.6361C16.3214 34.2995 18.1535 34.642 20.0026 34.6458C21.9869 34.6518 23.9528 34.2728 25.7871 33.5306C27.6214 32.7885 29.2878 31.6979 30.6904 30.3216C32.093 28.9453 33.204 27.3105 33.9595 25.5114C34.715 23.7124 35.1001 21.7845 35.0925 19.8389C35.0925 19.6584 35.0925 19.4779 35.0925 19.2748C27.3426 22.6556 20.3717 27.541 14.6006 33.6361" fill="white"/>
<path d="M23.6905 21.1075C17.9955 22.9015 12.5922 25.4868 7.64559 28.7845C5.75464 26.2838 4.70684 23.2668 4.64832 20.1542C11.0083 19.5259 17.4288 19.8473 23.6905 21.1075" fill="#FF9A33"/>
<path d="M7.58258 29.1575L7.42149 28.9432C5.4924 26.3983 4.42419 23.3252 4.3667 20.1549V19.9067H4.61983C6.72539 19.7036 8.87698 19.5964 11.0056 19.5964C15.2858 19.5943 19.5551 20.0177 23.7482 20.86L24.7838 21.0687L23.777 21.3846C18.1077 23.1632 12.7277 25.7295 7.80119 29.0052L7.58258 29.1575ZM4.93048 20.3974C5.03341 23.2781 6.00209 26.0647 7.71489 28.4073C12.3274 25.3585 17.332 22.9231 22.5977 21.1646C16.7738 20.1028 10.8272 19.8446 4.93048 20.3974" fill="white"/>
</svg>
