<svg xmlns="http://www.w3.org/2000/svg" viewBox="0 0 69.53 95.7"><defs><style>.cls-1,.cls-4{fill:#006837;}.cls-1{fill-rule:evenodd;}.cls-2{fill:#fff;}.cls-3{fill:#ffc533;}.cls-5{fill:#ff9a33;}</style></defs><g id="Layer_2" data-name="Layer 2"><g id="Layer_1-2" data-name="Layer 1"><path class="cls-1" d="M36,94.49a1.79,1.79,0,0,1-2.52,0Q.7,62,.69,34.76a34.07,34.07,0,0,1,68.14,0Q68.83,62,36,94.49M34.76,47.31A14.35,14.35,0,1,0,20.42,33,14.34,14.34,0,0,0,34.76,47.31"/><path class="cls-2" d="M34.76,95.7A2.49,2.49,0,0,1,33,95C11.11,73.31,0,53,0,34.76a34.77,34.77,0,0,1,69.53,0c0,18.29-11.11,38.55-33,60.22a2.46,2.46,0,0,1-1.75.72m0-94.32A33.42,33.42,0,0,0,1.39,34.76c0,17.9,11,37.83,32.6,59.24a1.11,1.11,0,0,0,1.55,0h0c21.63-21.41,32.6-41.34,32.6-59.24A33.42,33.42,0,0,0,34.76,1.38m0,46.63a15,15,0,1,1,15-15,15.06,15.06,0,0,1-15,15m0-28.69A13.65,13.65,0,1,0,48.42,33,13.67,13.67,0,0,0,34.76,19.32"/><path class="cls-3" d="M61.88,35.52A27.15,27.15,0,1,1,34.73,8.37,27.15,27.15,0,0,1,61.88,35.52"/><path class="cls-4" d="M61.36,34.07a107.27,107.27,0,0,0-11.75,6A110,110,0,0,0,24.51,60.4a26.76,26.76,0,0,1-11.23-8.79,108.53,108.53,0,0,1,48.05-18c0,.17,0,.34,0,.51"/><path class="cls-2" d="M24.64,61l-.31-.13a27.24,27.24,0,0,1-11.44-9l-.29-.4.41-.28A109.1,109.1,0,0,1,61.27,33.08l.5-.06,0,.5c0,.17,0,.35,0,.52v.34l-.3.13a107.38,107.38,0,0,0-11.7,6,109,109,0,0,0-25,20.24ZM14,51.72a26.15,26.15,0,0,0,10.41,8.1A110.06,110.06,0,0,1,59.75,34.25,108.08,108.08,0,0,0,14,51.72"/><path class="cls-4" d="M61.45,35.75A26.69,26.69,0,0,1,24.55,60.4,109.69,109.69,0,0,1,49.64,40.07a106.53,106.53,0,0,1,11.76-6c0,.55.05,1.12.05,1.68"/><path class="cls-2" d="M34.77,62.92a27,27,0,0,1-10.41-2.07l-.64-.27.47-.51a109.94,109.94,0,0,1,37-26.45l.63-.27.05.68c0,.57,0,1.15,0,1.72A27.14,27.14,0,0,1,34.77,62.92m-9.39-2.71A25.81,25.81,0,0,0,34.77,62,26.15,26.15,0,0,0,61,35.75c0-.32,0-.64,0-1A109.14,109.14,0,0,0,25.38,60.21"/><path class="cls-5" d="M41.18,38A108.78,108.78,0,0,0,13.29,51.61a26.51,26.51,0,0,1-5.21-15.3A109.85,109.85,0,0,1,41.18,38"/><path class="cls-2" d="M13.18,52.27l-.28-.38A26.92,26.92,0,0,1,7.59,36.31v-.44l.44,0c3.66-.36,7.4-.55,11.1-.55a110.09,110.09,0,0,1,22.15,2.24l1.8.37-1.75.56A108.26,108.26,0,0,0,13.56,52ZM8.57,36.74a25.93,25.93,0,0,0,4.84,14.2A109.36,109.36,0,0,1,39.28,38.1,110.47,110.47,0,0,0,8.57,36.74"/></g></g></svg>