<svg width="544" height="611" viewBox="0 0 544 611" fill="none" xmlns="http://www.w3.org/2000/svg">
<mask id="mask0_150_209" style="mask-type:alpha" maskUnits="userSpaceOnUse" x="0" y="0" width="544" height="611">
<rect width="544" height="611" fill="#D9D9D9"/>
</mask>
<g mask="url(#mask0_150_209)">
<path d="M481.868 167.729C502.606 167.037 509.709 182.678 518.729 196.588C558.501 258.042 551.257 251.468 497.919 284.133C457.436 308.978 416.953 333.546 375.76 357.422C369.451 360.298 364.03 364.741 360.041 370.304C356.051 375.868 353.634 382.356 353.032 389.118C348.558 429.326 327.89 462.475 299.41 490.919C237.052 553.204 163.331 595.696 73.9839 608.568C-21.2576 621.856 -77.7207 568.429 -63.9422 475.832C-49.2405 376.522 1.89587 296.451 81.5124 233.613C104.808 214.597 133.659 203.216 163.97 201.086C170.507 200.946 176.877 199.049 182.379 195.606C187.88 192.162 192.299 187.305 195.149 181.57C224.694 132.365 255.873 84.1983 285.419 34.9932C297.493 14.9236 310.987 10.702 330.802 23.9203C342.521 31.6713 354.95 38.3842 367.308 45.1664C383.075 53.7478 390.959 65.4436 385.064 83.437L379.24 90.3575C380.029 90.9856 380.948 91.4408 381.934 91.6923C382.919 91.9438 383.949 91.9856 384.953 91.8149C385.957 91.6442 386.911 91.265 387.751 90.7031C388.592 90.1411 389.298 89.4096 389.822 88.5582C395.646 83.2986 401.896 78.5926 407.649 73.2638C409.696 70.9741 412.222 69.1385 415.058 67.8807C417.895 66.6228 420.974 65.972 424.091 65.972C427.207 65.972 430.287 66.6228 433.123 67.8807C435.959 69.1385 438.486 70.9741 440.532 73.2638C451.612 83.091 462.194 93.4718 472.564 103.991C499.055 130.774 499.055 132.158 474.623 161.086C470.078 163.439 464.538 167.245 468.373 171.812C473.771 178.041 478.388 172.643 481.868 167.729ZM43.1601 567.806C40.4612 555.349 30.447 551.335 24.7652 543.93C17.6629 534.864 -0.874023 526.144 9.85041 515.348C23.4158 501.507 32.2226 521.715 40.5322 529.605C85.0635 571.128 84.7794 571.751 143.018 547.944L145.504 547.044C191.1 527.875 190.958 527.944 157.791 493.272C151.612 486.905 139.254 479.984 148.7 470.157C158.146 460.33 165.816 471.68 172.706 477.908C212.762 514.587 212.904 514.587 254.24 477.216C264.609 467.943 273.274 456.801 283.359 447.112C303.174 428.011 303.316 411.125 279.595 394.723C272.15 388.6 265.237 381.887 258.927 374.654C253.601 369.256 250.76 362.335 256.299 356.314C262.833 349.394 268.799 355.207 274.339 359.705C286.058 369.256 294.51 383.097 310.774 390.571C311.932 386.531 312.787 382.414 313.331 378.252C314.325 316.383 274.907 280.396 225.902 252.229C191.598 232.506 156.299 237.696 122.421 256.52C112.052 262.264 109.921 266.97 119.51 275.413C129.982 284.718 139.939 294.559 149.339 304.895C150.508 305.899 151.436 307.141 152.058 308.533C152.681 309.924 152.982 311.432 152.941 312.95C152.901 314.468 152.519 315.958 151.823 317.317C151.127 318.675 150.134 319.868 148.913 320.812C146.759 322.325 144.097 322.988 141.462 322.667C138.827 322.346 136.414 321.065 134.708 319.082C124.653 310.641 115.163 301.579 106.299 291.953C95.5039 279.565 87.0522 280.534 76.3277 291.953C22.9896 349.186 -14.7235 413.478 -24.2405 491.057C-30.1354 538.463 -5.1354 566.976 43.1601 567.806ZM442.45 131.05C437.734 126.662 432.676 122.636 427.322 119.009C419.723 114.649 416.385 122.192 412.478 125.929C375.547 161.639 338.828 197.488 301.967 233.267C295.717 239.426 288.544 244.271 298.842 254.029C307.933 262.472 313.047 259.634 320.149 252.229C356.583 215.896 393.657 180.325 430.376 144.476C433.998 140.878 437.123 137.002 442.45 131.05ZM353.032 322.68C353.882 322.412 354.713 322.088 355.518 321.711C399.765 294.929 444.013 268.285 487.976 241.226C495.078 236.658 490.39 230.637 487.549 225.447C484.14 219.149 479.595 216.658 472.635 220.879C430.779 245.978 388.544 271.03 345.93 296.036C338.26 300.742 338.828 306.971 342.379 313.891C344.723 317.974 345.93 324.134 353.032 322.68ZM246.072 215.412C252.038 215.965 254.169 212.228 256.512 208.491C281.797 168.006 307.01 127.521 332.507 87.1741C333.652 85.87 334.465 84.3217 334.882 82.6543C335.299 80.987 335.307 79.2475 334.906 77.5765C334.505 75.9055 333.706 74.35 332.573 73.0357C331.441 71.7214 330.007 70.6853 328.387 70.0111C319.083 63.7826 314.183 67.7966 309.495 75.6168C284.851 115.41 260.703 155.341 234.993 194.719C225.191 210.083 237.336 211.606 246.072 215.412Z" fill="#BCAB80" fill-opacity="0.4"/>
<path d="M25.6872 410.778C29.8669 412.655 33.8209 414.976 37.477 417.699C53.8833 433.409 70.1475 449.257 86.0566 465.451C87.4827 466.524 88.66 467.878 89.5112 469.426C90.3623 470.973 90.8682 472.678 90.9956 474.43C91.1231 476.181 90.8691 477.939 90.2505 479.588C89.6319 481.237 88.6625 482.739 87.406 483.998C81.4401 489.673 75.9003 484.621 71.4969 480.399C54.4515 464.067 37.6901 447.526 20.7156 431.125C18.2207 429.283 16.4648 426.649 15.7515 423.68C15.0382 420.71 15.4124 417.591 16.8094 414.861C18.0878 412.578 22.4912 411.955 25.6872 410.778Z" fill="#BCAB80" fill-opacity="0.4"/>
</g>
</svg>
