<svg width="204" height="229" viewBox="0 0 204 229" fill="none" xmlns="http://www.w3.org/2000/svg">
<mask id="mask0_205_534" style="mask-type:alpha" maskUnits="userSpaceOnUse" x="0" y="0" width="204" height="229">
<rect width="203.889" height="229" fill="#D9D9D9"/>
</mask>
<g mask="url(#mask0_205_534)">
<path d="M180.602 62.8642C188.374 62.6048 191.036 68.4668 194.417 73.6803C209.324 96.7132 206.608 94.2491 186.618 106.492C171.445 115.803 156.272 125.011 140.833 133.96C138.468 135.038 136.437 136.703 134.941 138.788C133.446 140.874 132.54 143.305 132.315 145.84C130.638 160.909 122.892 173.334 112.217 183.994C88.846 207.338 61.2155 223.264 27.7288 228.089C-7.96731 233.069 -29.1294 213.045 -23.9653 178.34C-18.4552 141.119 0.710485 111.109 30.5504 87.5571C39.2814 80.4301 50.0948 76.1646 61.455 75.3663C63.9052 75.3136 66.2928 74.6027 68.3547 73.3121C70.4167 72.0215 72.0729 70.2011 73.1408 68.0518C84.2143 49.6099 95.9 31.5572 106.974 13.1153C111.499 5.59333 116.556 4.01112 123.983 8.96526C128.375 11.8703 133.034 14.3863 137.665 16.9282C143.575 20.1445 146.529 24.528 144.32 31.2718L142.137 33.8656C142.433 34.101 142.777 34.2717 143.147 34.3659C143.516 34.4601 143.902 34.4758 144.279 34.4118C144.655 34.3479 145.013 34.2057 145.327 33.9951C145.642 33.7845 145.907 33.5104 146.103 33.1913C148.286 31.22 150.629 29.4562 152.785 27.459C153.552 26.6008 154.499 25.9128 155.562 25.4414C156.625 24.97 157.779 24.726 158.947 24.726C160.115 24.726 161.269 24.97 162.332 25.4414C163.395 25.9128 164.342 26.6008 165.109 27.459C169.262 31.1422 173.228 35.0328 177.115 38.9754C187.044 49.0134 187.044 49.5321 177.887 60.3742C176.183 61.2561 174.107 62.6826 175.544 64.3945C177.567 66.729 179.297 64.7058 180.602 62.8642ZM16.1761 212.811C15.1646 208.142 11.4113 206.638 9.2818 203.863C6.6199 200.465 -0.327656 197.197 3.69181 193.15C8.77604 187.963 12.0768 195.537 15.1912 198.493C31.8813 214.056 31.7749 214.29 53.6024 205.367L54.5341 205.03C71.6235 197.845 71.5703 197.871 59.1392 184.876C56.8233 182.49 52.1916 179.896 55.732 176.213C59.2723 172.53 62.1471 176.783 64.7292 179.118C79.7423 192.865 79.7955 192.865 95.2878 178.858C99.1742 175.383 102.422 171.207 106.202 167.576C113.628 160.417 113.682 154.088 104.791 147.941C102.001 145.645 99.4097 143.129 97.0447 140.419C95.0482 138.395 93.9835 135.802 96.0598 133.545C98.5087 130.951 100.745 133.13 102.821 134.816C107.213 138.395 110.381 143.583 116.477 146.384C116.911 144.87 117.231 143.327 117.435 141.767C117.807 118.579 103.034 105.091 84.6668 94.5344C71.8098 87.1421 58.5802 89.0874 45.8829 96.1425C41.9966 98.2954 41.198 100.059 44.7916 103.224C48.7166 106.711 52.4485 110.399 55.9715 114.273C56.4095 114.65 56.7574 115.115 56.9906 115.637C57.2239 116.158 57.3369 116.723 57.3217 117.292C57.3065 117.861 57.1634 118.42 56.9025 118.929C56.6416 119.438 56.2693 119.885 55.8118 120.239C55.0045 120.806 54.0067 121.054 53.0191 120.934C52.0315 120.814 51.1272 120.334 50.488 119.59C46.7191 116.427 43.1626 113.031 39.8404 109.423C35.7943 104.78 32.6267 105.143 28.6072 109.423C8.61633 130.873 -5.51836 154.97 -9.08531 184.046C-11.2947 201.814 -1.9248 212.5 16.1761 212.811ZM165.828 49.1171C164.061 47.4723 162.165 45.9634 160.158 44.6039C157.31 42.9698 156.059 45.7971 154.595 47.1977C140.753 60.5817 126.991 74.0175 113.176 87.4274C110.833 89.7359 108.145 91.5515 112.005 95.2088C115.412 98.3732 117.328 97.3097 119.99 94.5344C133.646 80.917 147.541 67.5849 161.303 54.1491C162.66 52.8003 163.832 51.3478 165.828 49.1171ZM132.315 120.939C132.633 120.838 132.945 120.717 133.246 120.576C149.83 110.538 166.414 100.552 182.891 90.4103C185.553 88.6984 183.796 86.4418 182.731 84.4964C181.454 82.1361 179.75 81.2023 177.141 82.7845C161.454 92.1913 145.624 101.581 129.653 110.953C126.778 112.717 126.991 115.051 128.322 117.645C129.2 119.175 129.653 121.484 132.315 120.939ZM92.2266 80.7354C94.4626 80.9429 95.2612 79.5423 96.1396 78.1416C105.616 62.968 115.066 47.7943 124.622 32.6725C125.051 32.1837 125.356 31.6034 125.512 30.9785C125.668 30.3536 125.671 29.7016 125.521 29.0754C125.371 28.4491 125.071 27.8661 124.647 27.3735C124.223 26.8809 123.685 26.4926 123.078 26.2399C119.591 23.9055 117.754 25.4099 115.997 28.3409C106.761 43.2552 97.7101 58.2213 88.0741 72.98C84.4006 78.7382 88.9525 79.3088 92.2266 80.7354Z" fill="#BCAB80" fill-opacity="0.4"/>
<path d="M9.62748 153.958C11.194 154.661 12.6759 155.531 14.0462 156.552C20.1952 162.439 26.291 168.379 32.2536 174.449C32.7881 174.851 33.2294 175.359 33.5484 175.939C33.8674 176.518 34.057 177.158 34.1048 177.814C34.1525 178.47 34.0574 179.129 33.8255 179.747C33.5936 180.365 33.2303 180.928 32.7594 181.4C30.5234 183.527 28.4471 181.633 26.7967 180.051C20.4082 173.93 14.1261 167.731 7.76415 161.584C6.82907 160.893 6.17096 159.906 5.90362 158.793C5.63628 157.68 5.77653 156.511 6.3001 155.488C6.77925 154.632 8.42963 154.399 9.62748 153.958Z" fill="#BCAB80" fill-opacity="0.4"/>
</g>
</svg>
