<svg width="187" height="220" viewBox="0 0 187 220" fill="none" xmlns="http://www.w3.org/2000/svg">
<mask id="mask0_188_2559" style="mask-type:alpha" maskUnits="userSpaceOnUse" x="0" y="0" width="187" height="220">
<rect width="187" height="219.542" fill="#D9D9D9"/>
</mask>
<g mask="url(#mask0_188_2559)">
<path d="M96.9946 191.992C100.183 198.376 103.341 203.967 97.3221 207.658C90.6407 211.774 86.549 206.66 83.016 201.738C80.1219 197.562 77.5771 192.244 72.4214 199.897C71.9261 200.577 71.2888 201.152 70.5471 201.588C69.8054 202.023 68.9743 202.31 68.1027 202.432C67.2312 202.554 66.3369 202.509 65.4725 202.298C64.6081 202.088 63.7912 201.717 63.0698 201.206C61.4046 200.546 60.0503 199.31 59.2882 197.756C58.5261 196.202 58.4147 194.449 58.977 192.862C61.5212 186.237 57.6084 186.482 52.8879 187.001C51.1798 187.22 49.4429 187.368 47.6837 187.565C42.3532 187.87 37.5459 186.793 36.5064 180.964C35.4668 175.134 39.4651 172.793 44.8944 172.012C45.9104 171.802 46.9073 171.523 47.8779 171.18C48.5552 167.357 44.8255 166.155 42.9219 164.152C30.8942 151.672 22.9147 136.215 19.9896 119.73C17.0645 103.245 19.3247 86.4704 26.4852 71.5207C33.7169 56.2469 45.7897 43.6018 61.0752 35.2909C76.3608 26.98 94.1236 23.4032 111.968 25.0428C114.667 25.5016 117.423 25.1809 119.874 24.1228C122.325 23.0646 124.357 21.3184 125.705 19.1124C129.642 14.2527 132.92 8.93307 135.464 3.27259C137.329 -1.63617 144.737 -4.07218 145.723 -1.29584C149.558 9.64569 173.617 -1.51715 167.357 15.1618C160.22 33.8443 164.204 45.9196 177.784 61.6404C199.799 87.1817 201.472 117.525 186.64 146.65C171.628 176.156 145.422 190.718 110.737 192.122C106.66 192.322 102.582 192.061 96.9946 191.992ZM40.1357 123.649C37.1952 124.126 38.8068 126.489 38.29 127.989C38.8328 127.885 39.6598 127.965 39.8784 127.63C40.7704 126.384 41.6193 125.032 39.8611 123.642C42.0902 115.116 44.257 106.592 46.5372 98.0901C51.5392 79.3497 63.7664 64.4379 75.2873 47.5379C72.5606 47.8217 71.1158 47.61 70.083 48.1013C45.6932 60.2996 30.1912 93.1644 36.6508 119.152C37.0585 120.92 36.2214 124.095 40.1357 123.649ZM133.255 50.9518C103.773 83.6376 84.7298 123.762 78.2537 166.844C101.431 152.287 134.276 83.2828 133.255 50.9518ZM102.003 168.552C136.098 162.933 169.401 101.2 150.728 63.7647C146.576 82.5713 140.324 100.842 132.077 118.273C124.03 136.073 113.946 152.931 102.003 168.552ZM63.4709 152.836C72.3804 114.782 89.0513 78.9759 112.559 47.4032C76.7521 55.2299 45.1333 116.07 63.4709 152.836ZM172.677 92.2189C170.947 117.811 160.63 141.94 143.227 161.094C141.395 163.161 136.37 164.266 138.844 167.36C141.318 170.454 145.223 167.321 147.822 165.595C171.487 149.93 181.544 128.107 178.286 100.49C177.794 97.3858 178.061 93.5818 172.677 92.2189ZM145.615 21.5027C142.072 24.1916 138.61 26.3109 139.17 30.657C139.396 32.2865 142.958 33.8465 144.101 32.8562C147.143 30.1168 147.991 26.4566 145.615 21.5027Z" fill="#C2AE6D" fill-opacity="0.5"/>
</g>
</svg>
