<svg width="408" height="479" viewBox="0 0 408 479" fill="none" xmlns="http://www.w3.org/2000/svg">
<mask id="mask0_150_34" style="mask-type:alpha" maskUnits="userSpaceOnUse" x="0" y="0" width="408" height="479">
<rect width="408" height="479" fill="#D9D9D9"/>
</mask>
<g mask="url(#mask0_150_34)">
<path d="M211.624 418.892C218.581 432.82 225.471 445.02 212.338 453.071C197.761 462.052 188.833 450.895 181.125 440.156C174.811 431.045 169.258 419.443 158.009 436.139C156.929 437.624 155.538 438.878 153.92 439.828C152.302 440.778 150.488 441.405 148.587 441.671C146.685 441.937 144.734 441.838 142.848 441.379C140.962 440.919 139.18 440.109 137.606 438.996C133.973 437.554 131.018 434.858 129.355 431.468C127.692 428.078 127.449 424.254 128.676 420.789C134.227 406.335 125.69 406.87 115.391 408.003C111.664 408.481 107.874 408.804 104.036 409.232C92.4061 409.898 81.9175 407.548 79.6493 394.83C77.3812 382.112 86.1048 377.003 97.9505 375.3C100.167 374.84 102.342 374.233 104.46 373.483C105.938 365.142 97.8001 362.52 93.6468 358.15C67.4046 330.921 49.9948 297.197 43.6127 261.23C37.2306 225.263 42.162 188.663 57.785 156.045C73.5632 122.721 99.9039 95.1316 133.254 76.9987C166.604 58.8659 205.36 51.0619 244.293 54.6393C250.183 55.6401 256.195 54.9405 261.542 52.6318C266.89 50.3232 271.324 46.5131 274.265 41.7C282.855 31.0972 290.006 19.4907 295.557 7.14052C299.625 -3.56949 315.789 -8.88443 317.94 -2.82696C326.307 21.0455 378.801 -3.30983 365.141 33.0806C349.571 73.8425 358.263 100.188 387.891 134.488C435.924 190.215 439.575 256.418 407.213 319.963C374.461 384.341 317.284 416.112 241.607 419.175C232.711 419.612 223.815 419.043 211.624 418.892ZM87.5679 269.779C81.1523 270.82 84.6684 275.976 83.541 279.249C84.7252 279.022 86.5295 279.197 87.0065 278.466C88.9527 275.747 90.8047 272.797 86.9688 269.764C91.8322 251.164 96.5598 232.566 101.535 214.015C112.448 173.127 139.126 140.592 164.262 103.719C158.313 104.339 155.161 103.877 152.907 104.949C99.6934 131.563 65.8707 203.268 79.9645 259.968C80.854 263.826 79.0275 270.753 87.5679 269.779ZM290.738 111.168C226.412 182.482 184.864 270.027 170.734 364.023C221.303 332.264 292.966 181.708 290.738 111.168ZM222.551 367.751C296.941 355.491 369.601 220.8 328.86 139.123C319.802 180.156 306.161 220.02 288.166 258.051C270.609 296.888 248.609 333.668 222.551 367.751ZM138.481 333.462C157.92 250.434 194.293 172.311 245.583 103.426C167.458 120.502 98.4718 253.244 138.481 333.462ZM376.749 201.205C372.975 257.043 350.465 309.687 312.495 351.478C308.498 355.989 297.534 358.399 302.931 365.149C308.329 371.9 316.85 365.064 322.519 361.299C374.153 327.119 396.095 279.507 388.988 219.252C387.913 212.479 388.495 204.179 376.749 201.205ZM317.705 46.9154C309.974 52.7819 302.421 57.4059 303.643 66.8882C304.135 70.4435 311.907 73.8473 314.4 71.6866C321.037 65.7098 322.888 57.7239 317.705 46.9154Z" fill="#C2AE6D" fill-opacity="0.5"/>
</g>
</svg>
