<svg width="40" height="41" viewBox="0 0 40 41" fill="none" xmlns="http://www.w3.org/2000/svg">
<path d="M34.1561 6.14206C32.314 4.30546 30.1203 2.8494 27.7028 1.85871C25.2853 0.868029 22.6925 0.362541 20.0753 0.371704C9.10845 0.371704 0.170768 9.19842 0.160723 20.0346C0.160723 23.5052 1.07986 26.8816 2.81516 29.871L0 40.0646L10.5575 37.3308C13.4781 38.9009 16.7501 39.7239 20.0753 39.7248H20.0853C31.0546 39.7248 39.9898 30.898 39.9998 20.0519C40.0024 17.4671 39.4871 14.9072 38.4837 12.5199C37.4803 10.1326 36.0087 7.96504 34.1536 6.14206H34.1561ZM20.0753 36.3955C17.1094 36.3965 14.1981 35.6081 11.6474 34.1132L11.0447 33.7559L4.7815 35.3784L6.45402 29.3426L6.06226 28.7199C4.40432 26.1158 3.52748 23.1009 3.53339 20.0247C3.53339 11.0293 10.9593 3.69102 20.0853 3.69102C22.2594 3.68717 24.4128 4.10848 26.4213 4.93066C28.4299 5.75284 30.2538 6.95964 31.7879 8.48146C33.3274 9.99736 34.5479 11.7994 35.3789 13.7835C36.2099 15.7677 36.635 17.8948 36.6297 20.042C36.6197 29.0697 29.1938 36.3955 20.0753 36.3955V36.3955ZM29.1536 24.1552C28.6589 23.9096 26.2154 22.7213 25.7558 22.5526C25.2987 22.3914 24.9647 22.307 24.6383 22.7982C24.3043 23.2869 23.35 24.4008 23.0637 24.7208C22.7774 25.0508 22.4811 25.088 21.9838 24.8449C21.4891 24.5968 19.8844 24.0808 17.9859 22.4013C16.5042 21.0989 15.5122 19.4863 15.2159 18.9976C14.9296 18.5064 15.1883 18.2434 15.4369 17.9978C15.6554 17.7795 15.9316 17.4223 16.1802 17.1395C16.4314 16.8567 16.5143 16.6483 16.6775 16.3208C16.8407 15.9884 16.7629 15.7056 16.6398 15.46C16.5143 15.2144 15.5223 12.7906 15.1029 11.8132C14.7011 10.8482 14.2918 10.9821 13.9854 10.9697C13.6991 10.9523 13.3651 10.9523 13.0311 10.9523C12.7789 10.9585 12.5307 11.0162 12.302 11.1216C12.0734 11.2271 11.8694 11.3781 11.7026 11.5651C11.2456 12.0563 9.96732 13.2446 9.96732 15.6684C9.96732 18.0921 11.7503 20.4216 12.0015 20.7515C12.2476 21.0815 15.5022 26.0406 20.4972 28.1741C21.6775 28.6827 22.6066 28.9829 23.3324 29.2111C24.5253 29.5882 25.6026 29.5311 26.4615 29.4096C27.4158 29.2657 29.4022 28.2188 29.8216 27.0702C30.2334 25.9191 30.2334 24.9367 30.1079 24.7308C29.9848 24.5224 29.6508 24.4008 29.1536 24.1552V24.1552Z" fill="#44A13F"/>
</svg>
