<svg width="216" height="285" viewBox="0 0 216 285" fill="none" xmlns="http://www.w3.org/2000/svg">
<mask id="mask0_203_446" style="mask-type:alpha" maskUnits="userSpaceOnUse" x="0" y="0" width="216" height="285">
<rect width="216" height="285" fill="#D9D9D9"/>
</mask>
<g mask="url(#mask0_203_446)">
<path d="M192.555 251.529C173.629 258.873 155.18 267.654 137.359 277.801C122.046 286.099 106.901 284.373 92.3687 277.235C62.0233 262.184 42.8208 235.139 24.6139 207.134C21.6781 202.625 19.1798 197.759 16.3105 193.143C-13.3321 145.499 14.6966 104.533 48.5705 85.7191C65.7081 76.1791 65.6112 76.3 53.4821 60.9527C32.3389 34.1211 31.5814 38.8926 56.9005 13.6087C70.0335 0.517104 73.9943 1.02429 82.392 17.3626C87.3638 27.0329 92.6829 36.5753 97.0582 46.5669C101.434 56.5584 106.327 59.6124 116.664 53.4586C130.633 45.1783 146.427 41.3141 162.075 42.3488C185.89 43.6859 205.47 54.365 213.609 77.9291C226.817 116.088 233.387 156.211 227.582 197.963C223.837 224.678 212.022 242.301 192.555 251.529ZM73.3631 141.878C84.058 164.855 96.6255 186.747 110.93 207.319C120.847 221.551 131.022 235.885 146.417 244.295C156.468 249.791 161.478 247.182 164.684 235.601C166.878 226.277 167.563 216.698 166.708 207.274C164.543 171.26 155.368 137.274 145.662 103.503C138.824 79.8436 131.94 71.0088 100.066 82.5165C96.5507 83.8904 93.1221 85.5223 89.8058 87.3998C63.9001 101.113 59.594 114.489 73.4849 141.82L73.3631 141.878ZM42.3995 115.085C25.4345 128.729 18.2167 150.033 26.6026 168.358C41.5021 200.629 61.4222 229.126 88.4767 251.051C96.8118 258.508 107.486 262.55 118.659 262.479C121.754 262.351 126.225 263.326 127.649 259.695C129.074 256.064 124.653 254.392 122.588 252.272C85.7294 213.744 60.4921 167.367 42.3995 115.085ZM150.569 63.5998C173.103 117.058 187.312 172.235 186.491 233.407C205.617 220.566 208.876 201.969 209.94 182.847C211.627 151.466 206.097 121.129 197.732 91.7659C191.381 69.7062 171.912 59.3104 150.544 63.5369L150.569 63.5998ZM80.6599 61.9228L82.4819 60.308C78.6182 52.9886 74.8944 45.5653 70.8301 38.3788C69.4896 35.989 69.3999 30.5366 64.4185 33.7673C60.0517 36.6308 62.6058 39.7139 64.6253 42.2666C69.8645 48.8565 75.2989 55.3909 80.6599 61.9228Z" fill="#EECA29" fill-opacity="0.5"/>
</g>
</svg>
