<svg width="633" height="823" viewBox="0 0 633 823" fill="none" xmlns="http://www.w3.org/2000/svg">
<mask id="mask0_150_213" style="mask-type:alpha" maskUnits="userSpaceOnUse" x="0" y="0" width="633" height="823">
<rect width="633" height="823" fill="#D9D9D9"/>
</mask>
<g mask="url(#mask0_150_213)">
<path d="M572.412 692.842C518.156 710.988 465.403 733.052 414.58 758.856C370.874 779.893 326.837 773.905 284.134 753.368C194.95 710.095 137.083 635.444 82.022 558.292C73.1443 545.869 65.5053 532.521 56.8117 519.817C-32.9999 388.676 44.8892 280.63 141.531 232.856C190.422 208.628 190.151 208.946 153.742 166.475C90.2664 92.2297 88.461 105.035 159.779 39.0551C196.773 4.8936 208.294 6.61051 233.97 51.426C249.171 77.9515 265.368 104.162 278.866 131.502C292.365 158.842 306.796 167.511 336.255 151.82C376.066 130.712 421.528 121.678 466.965 125.846C536.099 131.55 593.726 162.083 619.24 226.369C660.644 330.475 682.967 439.293 669.555 551.417C660.885 623.158 628.079 669.661 572.412 692.842ZM217.981 386.538C250.858 449.466 289.073 509.632 332.216 566.389C362.124 605.656 392.785 645.221 438.094 669.263C467.675 684.975 481.982 678.378 490.327 647.417C495.926 622.458 497.128 596.675 493.879 571.177C484.66 473.83 455.287 381.339 424.395 289.38C402.641 224.95 381.966 200.51 290.522 228.749C280.447 232.146 270.643 236.247 261.184 241.02C187.221 275.734 175.833 311.44 218.329 386.393L217.981 386.538ZM126.046 311.533C77.9901 346.849 58.8119 403.685 84.6157 453.859C130.439 542.228 190.505 620.861 270.712 682.39C295.48 703.241 326.748 715.083 359.126 715.875C368.088 715.803 381.125 718.826 384.957 709.156C388.788 699.485 375.84 694.587 369.68 688.687C259.699 581.504 182.76 454.169 126.046 311.533ZM435.355 182.163C505.038 328.361 550.731 478.466 553.355 643.42C607.74 610.461 615.665 560.578 617.184 509.086C619.509 424.577 600.999 342.248 574.355 262.299C554.142 202.229 496.863 172.47 435.278 181.991L435.355 182.163ZM232.593 171.485L237.742 167.289C225.945 147.203 214.545 126.849 202.177 107.104C198.097 100.539 197.391 85.8223 183.217 94.0994C170.794 101.44 178.449 109.982 184.511 117.046C200.235 135.285 216.521 153.392 232.593 171.485Z" fill="#EECA29" fill-opacity="0.5"/>
</g>
</svg>
